<?xml version="1.0" encoding="UTF-8" standalone="no"?>
<svg
   xmlns:dc="http://purl.org/dc/elements/1.1/"
   xmlns:cc="http://creativecommons.org/ns#"
   xmlns:rdf="http://www.w3.org/1999/02/22-rdf-syntax-ns#"
   xmlns:svg="http://www.w3.org/2000/svg"
   xmlns="http://www.w3.org/2000/svg"
   id="svg8"
   version="1.1"
   viewBox="0 0 48.708961 7.8528333"
   height="7.8528333mm"
   width="48.708961mm">
  <defs
     id="defs2" />
  <metadata
     id="metadata5">
    <rdf:RDF>
      <cc:Work
         rdf:about="">
        <dc:format>image/svg+xml</dc:format>
        <dc:type
           rdf:resource="http://purl.org/dc/dcmitype/StillImage" />
        <dc:title></dc:title>
      </cc:Work>
    </rdf:RDF>
  </metadata>
  <g
     transform="translate(0.71802477,-161.03155)"
     id="layer1">
    <g
       id="text3715"
       style="font-style:normal;font-weight:normal;font-size:10.58333302px;line-height:1.25;font-family:sans-serif;letter-spacing:0px;word-spacing:0px;fill:#000000;fill-opacity:1;stroke:none;stroke-width:0.26458332"
       aria-label="FALA MAIS">
      <path
         id="path8674"
         style="font-weight:normal;letter-spacing:-0.70114583px;fill:#6600ff"
         d="m -0.14652479,164.80979 v -2.95274 H 4.2667251 v -0.5715 h -4.98474987 v 7.41891 h 0.57149998 v -3.35492 H 4.1185584 v -0.53975 z" />
      <path
         id="path8676"
         style="font-weight:normal;letter-spacing:-0.70114583px;fill:#6600ff"
         d="m 10.718259,168.69388 h 0.613833 L 8.0089255,161.28555 H 7.3845089 l -3.3231666,7.40833 h 0.6138333 l 0.8043333,-1.82034 h 4.4238332 z m -1.0371669,-2.3495 H 5.7017589 l 1.9896666,-4.5085 z" />
      <path
         id="path8678"
         style="font-weight:normal;letter-spacing:-0.70114583px;fill:#6600ff"
         d="m 12.259126,161.28555 h -0.5715 v 7.40833 h 4.741334 v -0.53975 h -4.169834 z" />
      <path
         id="path8680"
         style="font-weight:normal;letter-spacing:-0.70114583px;fill:#6600ff"
         d="m 22.710497,168.69388 h 0.613834 l -3.323167,-7.40833 h -0.624417 l -3.323166,7.40833 h 0.613833 l 0.804333,-1.82034 h 4.423834 z m -1.037166,-2.3495 h -3.979334 l 1.989667,-4.5085 z" />
      <path
         id="path8682"
         style="font-style:normal;font-variant:normal;font-weight:bold;font-stretch:normal;font-family:Nexa;-inkscape-font-specification:Nexa;letter-spacing:-0.74877083px;fill:#ff0066"
         d="m 30.788558,163.32813 v 5.37633 h 1.397 v -7.40833 h -1.598084 l -2.31775,3.18558 -2.317749,-3.18558 h -1.608667 v 7.40833 h 1.397 v -5.38691 l 2.360083,3.22791 h 0.275167 z" />
      <path
         id="path8684"
         style="font-style:normal;font-variant:normal;font-weight:bold;font-stretch:normal;font-family:Nexa;-inkscape-font-specification:Nexa;letter-spacing:-0.74877083px;fill:#ff0066"
         d="m 38.000932,167.29688 0.624417,1.397 h 1.524 l -3.323167,-7.40833 h -1.524 l -3.323167,7.40833 h 1.513417 l 0.635,-1.397 z m -1.93675,-4.45558 1.375833,3.15383 h -2.751666 z" />
      <path
         id="path8686"
         style="font-style:normal;font-variant:normal;font-weight:bold;font-stretch:normal;font-family:Nexa;-inkscape-font-specification:Nexa;letter-spacing:-0.74877083px;fill:#ff0066"
         d="m 39.919659,168.69388 h 1.386417 v -7.40833 h -1.386417 z" />
      <path
         id="path8688"
         style="font-style:normal;font-variant:normal;font-weight:bold;font-stretch:normal;font-family:Nexa;-inkscape-font-specification:Nexa;letter-spacing:-0.74877083px;fill:#ff0066"
         d="m 46.646855,163.07413 1.11125,-0.5715 c -0.560917,-1.143 -1.756834,-1.47108 -2.910417,-1.47108 -1.36525,0.0106 -2.868083,0.635 -2.868083,2.159 0,1.66158 1.397,2.06374 2.910416,2.24366 0.98425,0.10583 1.7145,0.39158 1.7145,1.09008 0,0.80434 -0.8255,1.11125 -1.703916,1.11125 -0.899584,0 -1.756833,-0.35983 -2.084917,-1.17475 l -1.164166,0.60325 c 0.550333,1.35467 1.714499,1.82034 3.227916,1.82034 1.651,0 3.1115,-0.70909 3.1115,-2.36009 0,-1.76741 -1.439333,-2.16958 -2.9845,-2.36008 -0.889,-0.10583 -1.651,-0.28575 -1.651,-0.93133 0,-0.55033 0.497417,-0.98425 1.534583,-0.98425 0.804334,0 1.502834,0.40217 1.756834,0.8255 z" />
    </g>
  </g>
</svg>
